<svg data-v-423bf9ae="" xmlns="http://www.w3.org/2000/svg" viewBox="0 0 646 90" class="iconLeft"><!----><!----><!----><g data-v-423bf9ae="" id="b982132d-777f-449c-9cf4-c77c3ada27c3" fill="white" transform="matrix(5.5147058243466915,0,0,5.5147058243466915,92.36997039273211,-1.9852939950863018)"><path d="M1.40 13.78L2.56 13.78L2.56 9.87L4.20 9.87L6.41 13.78L7.74 13.78L5.40 9.74C6.65 9.42 7.46 8.57 7.46 7.13C7.46 5.21 6.12 4.54 4.26 4.54L1.40 4.54ZM2.56 8.92L2.56 5.47L4.09 5.47C5.52 5.47 6.30 5.91 6.30 7.13C6.30 8.33 5.52 8.92 4.09 8.92ZM13.02 13.96C14.11 13.96 14.97 13.57 15.64 13.12L15.23 12.35C14.60 12.77 13.96 13.02 13.16 13.02C11.68 13.02 10.61 12.03 10.56 10.49L15.88 10.49C15.90 10.30 15.92 10.05 15.92 9.81C15.92 7.80 14.77 6.47 12.82 6.47C11.06 6.47 9.37 7.90 9.37 10.22C9.37 12.56 11.00 13.96 13.02 13.96ZM10.54 9.65C10.72 8.22 11.73 7.38 12.84 7.38C14.10 7.38 14.85 8.19 14.85 9.65ZM20.24 13.96C21.21 13.96 22.18 13.41 22.93 12.80L22.97 12.80L23.07 13.78L24.01 13.78L24.01 9.38C24.01 7.63 23.11 6.47 21.25 6.47C20.06 6.47 19.05 7.03 18.51 7.49L18.96 8.29C19.45 7.87 20.17 7.42 21.06 7.42C22.37 7.42 22.83 8.27 22.86 9.25C19.35 9.56 17.93 10.33 17.93 11.94C17.93 13.22 18.97 13.96 20.24 13.96ZM20.55 13.03C19.77 13.03 19.05 12.68 19.05 11.86C19.05 10.89 19.95 10.28 22.86 10.02L22.86 11.94C22.09 12.64 21.32 13.03 20.55 13.03ZM30.04 13.96C31.05 13.96 32.00 13.54 32.75 12.84L32.24 12.10C31.67 12.60 30.97 13.01 30.13 13.01C28.56 13.01 27.51 11.89 27.51 10.22C27.51 8.55 28.59 7.42 30.16 7.42C30.87 7.42 31.46 7.73 32.02 8.26L32.59 7.52C32.03 6.94 31.22 6.47 30.11 6.47C28.06 6.47 26.32 7.83 26.32 10.22C26.32 12.59 27.92 13.96 30.04 13.96ZM39.10 13.96C39.84 13.96 40.63 13.76 41.24 13.52L40.99 12.68C40.52 12.88 40.00 13.01 39.35 13.01C38.04 13.01 37.63 12.32 37.63 11.03L37.63 7.57L40.98 7.57L40.98 6.64L37.63 6.64L37.63 3.84L36.53 4.54L36.53 6.64L34.57 6.64L34.57 7.57L36.48 7.57L36.48 11.02C36.48 12.77 37.13 13.96 39.10 13.96ZM51.56 13.78L52.67 13.78L52.67 8.93C52.67 7.98 52.56 6.99 52.51 6.05L52.54 6.05L53.47 7.94L56.45 13.78L57.64 13.78L57.64 4.54L56.53 4.54L56.53 9.34C56.53 10.30 56.64 11.35 56.69 12.26L56.66 12.26L55.73 10.37L52.75 4.54L51.56 4.54ZM62.24 13.96C63.21 13.96 64.18 13.41 64.93 12.80L64.97 12.80L65.07 13.78L66.01 13.78L66.01 9.38C66.01 7.63 65.11 6.47 63.25 6.47C62.06 6.47 61.05 7.03 60.51 7.49L60.96 8.29C61.45 7.87 62.17 7.42 63.06 7.42C64.37 7.42 64.83 8.27 64.86 9.25C61.35 9.56 59.93 10.33 59.93 11.94C59.93 13.22 60.97 13.96 62.24 13.96ZM62.55 13.03C61.77 13.03 61.05 12.68 61.05 11.86C61.05 10.89 61.95 10.28 64.86 10.02L64.86 11.94C64.09 12.64 63.32 13.03 62.55 13.03ZM68.50 13.78L69.65 13.78L69.65 8.79C70.45 7.90 70.99 7.46 71.81 7.46C72.93 7.46 73.37 8.12 73.37 9.49L73.37 13.78L74.52 13.78L74.52 9.34C74.52 7.46 73.78 6.47 72.17 6.47C71.11 6.47 70.32 7.07 69.61 7.88L69.55 7.88L69.45 6.64L68.50 6.64ZM79.04 13.96C80.01 13.96 80.98 13.41 81.73 12.80L81.77 12.80L81.87 13.78L82.81 13.78L82.81 9.38C82.81 7.63 81.91 6.47 80.05 6.47C78.86 6.47 77.85 7.03 77.31 7.49L77.76 8.29C78.25 7.87 78.97 7.42 79.86 7.42C81.17 7.42 81.63 8.27 81.66 9.25C78.15 9.56 76.73 10.33 76.73 11.94C76.73 13.22 77.77 13.96 79.04 13.96ZM79.35 13.03C78.57 13.03 77.85 12.68 77.85 11.86C77.85 10.89 78.75 10.28 81.66 10.02L81.66 11.94C80.89 12.64 80.12 13.03 79.35 13.03ZM88.34 13.96C90.29 13.96 91.36 12.99 91.36 11.83C91.36 10.75 90.48 10.19 88.65 9.70C87.42 9.38 86.58 9.02 86.58 8.43C86.58 7.85 86.98 7.36 88.26 7.36C89.10 7.36 89.82 7.67 90.43 8.12L90.99 7.36C90.31 6.89 89.28 6.47 88.26 6.47C86.38 6.47 85.40 7.35 85.40 8.48C85.40 9.48 86.59 10.14 87.99 10.50C89.66 10.93 90.20 11.34 90.20 11.90C90.20 12.54 89.60 13.05 88.38 13.05C87.16 13.05 86.32 12.67 85.57 12.08L85.01 12.84C85.83 13.44 87.01 13.96 88.34 13.96ZM96.88 5.04C97.43 5.04 97.86 4.65 97.86 4.07C97.86 3.49 97.43 3.08 96.88 3.08C96.33 3.08 95.90 3.49 95.90 4.07C95.90 4.65 96.33 5.04 96.88 5.04ZM93.80 13.78L100.24 13.78L100.24 12.82L97.59 12.82L97.59 6.64L93.80 6.64L93.80 7.57L96.45 7.57L96.45 12.82L93.80 12.82Z"></path></g><!----><g data-v-423bf9ae="" id="6413c393-dd62-4980-9f6a-2201310cc04e" transform="matrix(1.0168027663908814,0,0,1.0168027663908814,-10.219222438708321,-5.097242042854013)" stroke="none" fill="white"><path d="M10.8 73.5v.5c.6 7.7 4 13.8 9.6 17.3 3.1 2 6.7 3 10.5 3 3 0 6.1-.6 9.3-1.8 7-2.7 13.4-8.2 17.9-15.4s6.7-15.3 6.1-22.8c-.2-2.1-.6-4.1-1.1-5.9 4.2-1.8 12.2-.5 15.1.2.6.1 1.2-.1 1.5-.5.4-.5.4-1.1.1-1.6-1.5-2.8-3.9-4.9-7.1-6.1 4-2.6 10.8-2.6 10.9-2.6.6 0 1.3-.4 1.5-1.1.2-.7-.1-1.3-.7-1.7-2.1-1.3-4.3-2.2-6.5-2.8 2-2.5 7.1-5.6 10.4-7.2.6-.3.9-.9.8-1.5-.1-.6-.6-1.2-1.2-1.3-5.8-1.1-11.7.5-16.3 2.6 1.7-6.8 2.5-16.9 2.5-17.4.1-.8-.5-1.5-1.3-1.6-.8-.1-1.5.4-1.7 1.1 0 .1-2.3 9-8.2 14.3-2.3-5.7-5.6-9-5.9-9.3-.5-.5-1.3-.6-1.9-.2-.6.4-.8 1.1-.6 1.8 1.6 4.4 0 9.1-1.1 11.6-2.6-3.5-5.7-5.5-6.4-6 0 0-.1 0-.2-.1s-.2-.1-.3-.1H45.9h-.1c-.1 0-.3 0-.4.1 0 0-.1 0-.1.1-.1.1-.2.1-.3.2v.1c-.1.1-.2.3-.3.4v.1c0 .1-.1.3-.1.4v.2c0 .1 0 .2.1.3 0 .1.1.2.2.2 0 .1.1.2.1.2s4.1 3.7 3 13c-4.2-.9-8.8-.4-13.5 1.4-6.6 2.6-12.7 7.6-17.2 14.2-.1.1-.1.2-.2.3l-.6.9c-4.4 7-6.5 14.8-6.1 22.1.4.3.4.4.4.4zm42.2-34c1.2.7 2.2 1.6 3.1 2.6l.2.2c1 1.1 1.8 2.3 2.5 3.7-2.1.4-4.2.7-6.3.8-.1-2.5-.1-4.9.2-7.4.1 0 .2.1.3.1zM26.2 76c-1-2.9-1.8-5.8-2.4-8.8 2.4.8 4.7 1.5 7 2.1.9 2.8 2 5.6 3.3 8.3-2.5-.4-5.2-.9-7.9-1.6zm14.5-16c.7 2.7 1.7 5.5 2.7 8.2-3.3-.2-6.8-.7-10.2-1.4-.9-3-1.5-6.1-1.8-9.1 3.1 1 6.3 1.7 9.3 2.3zm-2.9 18.2c-1.4-2.7-2.6-5.4-3.5-8.1 3.6.7 7.1 1.1 10.5 1.2 1.3 3.1 2.7 5.7 3.9 7.7-3.6 0-7.2-.3-10.9-.8zm8.9-9.9c-1.1-2.6-2-5.2-2.8-7.8 2.6.3 5.1.5 7.7.5h.6c.8 2.3 1.7 4.6 2.8 6.7-2.7.4-5.5.6-8.3.6zm13-1.6c-.6.1-1.1.3-1.7.4-.8-1.6-1.8-3.7-2.7-6.3 2-.1 3.9-.4 5.8-.7-.2 2.2-.7 4.4-1.4 6.6zm-5.3-8.8c-.8-2.7-1.3-5.4-1.7-8.1 2.5-.1 4.9-.5 7.3-1 .6 1.8 1 3.7 1.2 5.8.1.8.1 1.6.1 2.5-2.2.4-4.5.6-6.9.8zm-4.7-8.1c.3 2.7.8 5.4 1.6 8.1-2.7 0-5.4-.2-8.2-.6-.7-2.7-1.2-5.5-1.5-8.2 2.7.5 5.5.7 8.1.7zm-11.1-1.3c.3 2.7.7 5.5 1.3 8.2-2.9-.6-5.8-1.3-8.8-2.3-.1-2.7 0-5.4.3-8.1 2.4 1 4.8 1.7 7.2 2.2zm-10.3 8.2c.3 3.1.8 6.2 1.6 9.3-2.2-.6-4.4-1.3-6.6-2.1-.5-3.2-.7-6.3-.6-9.4 1.7.8 3.6 1.5 5.6 2.2zM20.6 66c.5 3 1.3 6.1 2.2 9.1-3-.8-6-1.8-9-2.8-.1-2.9.3-5.8 1-8.8 1.9.9 3.8 1.7 5.8 2.5zM14 75.5c3.3 1.1 6.6 2.1 9.9 3 1.9 5.4 4.1 9.8 5.8 12.8-2.8-.2-5.4-1-7.7-2.4-4.3-2.8-7.1-7.5-8-13.4zm25.2 14.2c-2 .8-4.1 1.3-6 1.5-1.4-2.4-3.7-6.6-5.7-11.8 2.9.7 5.7 1.2 8.4 1.6 1.9 3.5 3.8 6.2 5.1 8-.6.2-1.2.5-1.8.7zm4.4-2.2c-1-1.3-2.4-3.4-4-6.1 3.3.4 6.5.6 9.6.6h1.1s0 .1.1.1c-2 2.1-4.3 3.9-6.8 5.4zm9.7-8.6c-.4 0-.8 0-1.2.1-1.1-1.9-2.5-4.5-4-7.6 2.9-.1 5.7-.3 8.4-.8.3.6.7 1.2 1 1.7-.6 1.1-1.2 2.3-1.9 3.4-.7 1-1.5 2.1-2.3 3.2zM62 45.6c-.6-1.2-1.2-2.4-1.9-3.4 2.5-.3 6.1-.5 9.5.2 2.2.5 4 1.4 5.4 2.5-3.8-.4-9.2-.8-13 .7zm7.4-6.2c-4.4-.8-8.9-.3-11.4.2V39c2.5-1.8 9.2-5.8 17.5-4.3.9.2 1.7.4 2.6.7-3 .5-6.5 1.6-8.7 4zm5.4-7.9c-3.6-.5-6.8-.1-9.6.7v-.1c2-1.5 9.3-6.6 17.3-7.3-2.9 1.8-6.3 4.3-7.7 6.7zm-4.7-14.3c-.5 3.5-1.2 7-2.1 9.4-1.2.7-2.2 1.3-3.1 1.9-.2-1.6-.5-3-.9-4.4 2.7-1.9 4.6-4.4 6.1-6.9zm-11.6 1.3c2 3.4 4 8.5 3.7 14.7-1.7.7-3.1 1.5-4.3 2.1-.3-2.9-1.2-5.3-2.4-7.4.8-1.2 2.7-4.9 3-9.4zm-7.4 8.1c2 2.6 3.8 6.2 3.9 10.7-.1-.1-.3-.2-.4-.3-1.1-.7-2.2-1.2-3.4-1.7.5-3.5.4-6.4-.1-8.7zM44 37c2 0 4 .3 5.8 1-.4 2.9-.5 5.9-.3 8.8-2.7 0-5.4-.3-8.1-.8-.2-3-.1-6 .1-8.8.9-.1 1.7-.2 2.5-.2zm-8.1 1.7c.9-.3 1.7-.6 2.6-.8-.2 2.5-.2 5-.1 7.6-2.2-.5-4.4-1.2-6.5-2 .2-1.1.4-2.1.7-3.2 1-.7 2.1-1.2 3.3-1.6zm-9.3 5.7c.6.3 1.2.6 1.9.9-.4 2.7-.5 5.4-.4 8.2-1.8-.7-3.6-1.4-5.3-2.2.1-1.1.2-2.3.4-3.4 1-1.3 2.2-2.5 3.4-3.5zM19.3 53c.1.1.2.1.3.2-.1 3.1 0 6.3.4 9.5-1.5-.6-3-1.3-4.4-2 1-2.7 2.2-5.3 3.7-7.7z"></path></g><!----></svg>