<svg data-v-423bf9ae="" xmlns="http://www.w3.org/2000/svg" viewBox="0 0 545.0735034829711 60" class="font"><!----><!----><!----><g data-v-423bf9ae="" id="3e91030c-ee93-4bce-8f58-2fa900792890" fill="white" transform="matrix(5.5147058243466915,0,0,5.5147058243466915,-7.720590520353824,-16.985293995086302)"><path d="M1.40 13.78L2.56 13.78L2.56 9.87L4.20 9.87L6.41 13.78L7.74 13.78L5.40 9.74C6.65 9.42 7.46 8.57 7.46 7.13C7.46 5.21 6.12 4.54 4.26 4.54L1.40 4.54ZM2.56 8.92L2.56 5.47L4.09 5.47C5.52 5.47 6.30 5.91 6.30 7.13C6.30 8.33 5.52 8.92 4.09 8.92ZM13.02 13.96C14.11 13.96 14.97 13.57 15.64 13.12L15.23 12.35C14.60 12.77 13.96 13.02 13.16 13.02C11.68 13.02 10.61 12.03 10.56 10.49L15.88 10.49C15.90 10.30 15.92 10.05 15.92 9.81C15.92 7.80 14.77 6.47 12.82 6.47C11.06 6.47 9.37 7.90 9.37 10.22C9.37 12.56 11.00 13.96 13.02 13.96ZM10.54 9.65C10.72 8.22 11.73 7.38 12.84 7.38C14.10 7.38 14.85 8.19 14.85 9.65ZM20.24 13.96C21.21 13.96 22.18 13.41 22.93 12.80L22.97 12.80L23.07 13.78L24.01 13.78L24.01 9.38C24.01 7.63 23.11 6.47 21.25 6.47C20.06 6.47 19.05 7.03 18.51 7.49L18.96 8.29C19.45 7.87 20.17 7.42 21.06 7.42C22.37 7.42 22.83 8.27 22.86 9.25C19.35 9.56 17.93 10.33 17.93 11.94C17.93 13.22 18.97 13.96 20.24 13.96ZM20.55 13.03C19.77 13.03 19.05 12.68 19.05 11.86C19.05 10.89 19.95 10.28 22.86 10.02L22.86 11.94C22.09 12.64 21.32 13.03 20.55 13.03ZM30.04 13.96C31.05 13.96 32.00 13.54 32.75 12.84L32.24 12.10C31.67 12.60 30.97 13.01 30.13 13.01C28.56 13.01 27.51 11.89 27.51 10.22C27.51 8.55 28.59 7.42 30.16 7.42C30.87 7.42 31.46 7.73 32.02 8.26L32.59 7.52C32.03 6.94 31.22 6.47 30.11 6.47C28.06 6.47 26.32 7.83 26.32 10.22C26.32 12.59 27.92 13.96 30.04 13.96ZM39.10 13.96C39.84 13.96 40.63 13.76 41.24 13.52L40.99 12.68C40.52 12.88 40.00 13.01 39.35 13.01C38.04 13.01 37.63 12.32 37.63 11.03L37.63 7.57L40.98 7.57L40.98 6.64L37.63 6.64L37.63 3.84L36.53 4.54L36.53 6.64L34.57 6.64L34.57 7.57L36.48 7.57L36.48 11.02C36.48 12.77 37.13 13.96 39.10 13.96ZM51.56 13.78L52.67 13.78L52.67 8.93C52.67 7.98 52.56 6.99 52.51 6.05L52.54 6.05L53.47 7.94L56.45 13.78L57.64 13.78L57.64 4.54L56.53 4.54L56.53 9.34C56.53 10.30 56.64 11.35 56.69 12.26L56.66 12.26L55.73 10.37L52.75 4.54L51.56 4.54ZM62.24 13.96C63.21 13.96 64.18 13.41 64.93 12.80L64.97 12.80L65.07 13.78L66.01 13.78L66.01 9.38C66.01 7.63 65.11 6.47 63.25 6.47C62.06 6.47 61.05 7.03 60.51 7.49L60.96 8.29C61.45 7.87 62.17 7.42 63.06 7.42C64.37 7.42 64.83 8.27 64.86 9.25C61.35 9.56 59.93 10.33 59.93 11.94C59.93 13.22 60.97 13.96 62.24 13.96ZM62.55 13.03C61.77 13.03 61.05 12.68 61.05 11.86C61.05 10.89 61.95 10.28 64.86 10.02L64.86 11.94C64.09 12.64 63.32 13.03 62.55 13.03ZM68.50 13.78L69.65 13.78L69.65 8.79C70.45 7.90 70.99 7.46 71.81 7.46C72.93 7.46 73.37 8.12 73.37 9.49L73.37 13.78L74.52 13.78L74.52 9.34C74.52 7.46 73.78 6.47 72.17 6.47C71.11 6.47 70.32 7.07 69.61 7.88L69.55 7.88L69.45 6.64L68.50 6.64ZM79.04 13.96C80.01 13.96 80.98 13.41 81.73 12.80L81.77 12.80L81.87 13.78L82.81 13.78L82.81 9.38C82.81 7.63 81.91 6.47 80.05 6.47C78.86 6.47 77.85 7.03 77.31 7.49L77.76 8.29C78.25 7.87 78.97 7.42 79.86 7.42C81.17 7.42 81.63 8.27 81.66 9.25C78.15 9.56 76.73 10.33 76.73 11.94C76.73 13.22 77.77 13.96 79.04 13.96ZM79.35 13.03C78.57 13.03 77.85 12.68 77.85 11.86C77.85 10.89 78.75 10.28 81.66 10.02L81.66 11.94C80.89 12.64 80.12 13.03 79.35 13.03ZM88.34 13.96C90.29 13.96 91.36 12.99 91.36 11.83C91.36 10.75 90.48 10.19 88.65 9.70C87.42 9.38 86.58 9.02 86.58 8.43C86.58 7.85 86.98 7.36 88.26 7.36C89.10 7.36 89.82 7.67 90.43 8.12L90.99 7.36C90.31 6.89 89.28 6.47 88.26 6.47C86.38 6.47 85.40 7.35 85.40 8.48C85.40 9.48 86.59 10.14 87.99 10.50C89.66 10.93 90.20 11.34 90.20 11.90C90.20 12.54 89.60 13.05 88.38 13.05C87.16 13.05 86.32 12.67 85.57 12.08L85.01 12.84C85.83 13.44 87.01 13.96 88.34 13.96ZM96.88 5.04C97.43 5.04 97.86 4.65 97.86 4.07C97.86 3.49 97.43 3.08 96.88 3.08C96.33 3.08 95.90 3.49 95.90 4.07C95.90 4.65 96.33 5.04 96.88 5.04ZM93.80 13.78L100.24 13.78L100.24 12.82L97.59 12.82L97.59 6.64L93.80 6.64L93.80 7.57L96.45 7.57L96.45 12.82L93.80 12.82Z"></path></g><!----><!----></svg>